<?xml version="1.0" encoding="UTF-8"?><svg id="a" xmlns="http://www.w3.org/2000/svg" viewBox="0 0 24 24"><path d="M16,21c-1.34,0-2.59-.52-3.54-1.47L4.46,11.53c-.94-.94-1.46-2.2-1.46-3.54s.52-2.59,1.46-3.54h0c1.95-1.95,5.12-1.95,7.07,0l8,8c.94.94,1.46,2.2,1.46,3.54s-.52,2.59-1.46,3.54-2.2,1.47-3.54,1.47ZM5.88,5.88c-.57.57-.88,1.32-.88,2.12s.31,1.55.88,2.12l8,8c1.13,1.13,3.11,1.13,4.24,0,.57-.57.88-1.32.88-2.12s-.31-1.55-.88-2.12L10.12,5.88c-1.17-1.17-3.07-1.17-4.24,0Z" fill="#fbbc04" stroke-width="0"/><path d="M15.13,15.9l-1.25-1.56c.08-.07.17-.14.24-.22.57-.57.88-1.32.88-2.12s-.31-1.55-.88-2.12c-.14-.14-.3-.27-.47-.39l1.1-1.67c.28.19.55.4.78.64.94.94,1.46,2.2,1.46,3.53s-.52,2.59-1.46,3.54c-.13.13-.27.25-.41.37Z" fill="#4285f4" stroke-width="0"/><path d="M15.54,15.53l-1.41-1.41,4-4c.57-.57.88-1.32.88-2.12s-.31-1.55-.88-2.12c-1.17-1.17-3.07-1.17-4.24,0l-4,4-1.41-1.41,4-4c1.95-1.95,5.12-1.95,7.07,0,.94.94,1.46,2.2,1.46,3.54s-.52,2.59-1.46,3.54l-4,4Z" fill="#4285f4" stroke-width="0"/><path d="M14.12,9.88l-4-4c-1.17-1.17-3.07-1.17-4.24,0l-1.41-1.41c1.95-1.95,5.12-1.95,7.07,0l4,4-1.41,1.41Z" fill="#ea4335" stroke-width="0"/><path d="M9.88,9.88l-1.41-1.41,4-4c1.95-1.95,5.12-1.95,7.07,0l-1.41,1.41c-1.17-1.17-3.07-1.17-4.24,0l-4,4Z" fill="#ea4335" stroke-width="0"/><path d="M8,21c-1.28,0-2.56-.49-3.54-1.46l1.41-1.41c1.17,1.17,3.07,1.17,4.24,0l4-4,1.41,1.41-4,4c-.97.97-2.26,1.46-3.54,1.46Z" fill="#34a853" stroke-width="0"/><path d="M16,21c-1.34,0-2.59-.52-3.54-1.47l-4-4,1.41-1.41,4,4c1.13,1.13,3.11,1.13,4.24,0l1.41,1.41c-.94.94-2.2,1.47-3.54,1.47Z" fill="#34a853" stroke-width="0"/><path d="M12,17c-1.28,0-2.56-.49-3.54-1.46l1.41-1.41c1.17,1.17,3.07,1.17,4.24,0l1.41,1.41c-.97.97-2.26,1.46-3.54,1.46Z" fill="#34a853" stroke-width="0"/><path d="M14.12,9.88c-1.17-1.17-3.07-1.17-4.24,0l-1.41-1.41c1.95-1.95,5.12-1.95,7.07,0l-1.41,1.41Z" fill="#ea4335" stroke-width="0"/><path d="M8.46,15.53c-.94-.94-1.46-2.2-1.46-3.54s.52-2.59,1.46-3.54l1.41,1.41c-.57.57-.88,1.32-.88,2.12s.31,1.55.88,2.12l-1.41,1.41Z" fill="#fbbc04" stroke-width="0"/><path d="M4.46,19.53c-.94-.94-1.46-2.2-1.46-3.54s.52-2.59,1.46-3.54l4-4,1.41,1.41-4,4c-.57.57-.88,1.32-.88,2.12s.31,1.55.88,2.12l-1.41,1.41Z" fill="#fbbc04" stroke-width="0"/><path d="M19.54,19.53l-1.41-1.41c.57-.57.88-1.32.88-2.12s-.31-1.55-.88-2.12l-4-4,1.41-1.41,4,4c.94.94,1.46,2.2,1.46,3.54s-.52,2.59-1.46,3.54Z" fill="#4285f4" stroke-width="0"/></svg>